<svg width="1676" height="282" viewBox="0 0 1676 282" fill="none" xmlns="http://www.w3.org/2000/svg">
<path d="M1671 280.011V282.511H1676V280.011H1671ZM1676 133.998C1676 132.617 1674.88 131.498 1673.5 131.498C1672.12 131.498 1671 132.617 1671 133.998H1676ZM1676 280.011V133.998H1671V280.011H1676Z" fill="#480CA8"/>
<path d="M1625.5 95C1625.5 93.6193 1624.38 92.5 1623 92.5C1621.62 92.5 1620.5 93.6193 1620.5 95H1625.5ZM1625.5 281V95H1620.5V281H1625.5Z" fill="#560BAD"/>
<path d="M1524.99 87.9984C1524.99 86.6177 1523.87 85.4984 1522.49 85.4984C1521.11 85.4984 1519.99 86.6177 1519.99 87.9984H1524.99ZM1524.99 282.001V87.9984H1519.99V282.001H1524.99Z" fill="#B5179E"/>
<path d="M1474.5 24C1474.5 22.6193 1473.38 21.5 1472 21.5C1470.62 21.5 1469.5 22.6193 1469.5 24H1474.5ZM1474.5 282V24H1469.5V282H1474.5Z" fill="#F72585"/>
<path d="M1423.98 148.998C1423.98 147.617 1422.87 146.498 1421.48 146.498C1420.1 146.498 1418.98 147.617 1418.98 148.998H1423.98ZM1423.98 282.002V148.998H1418.98V282.002H1423.98Z" fill="#4CC9F0"/>
<path d="M1321.5 29C1321.5 27.6193 1320.38 26.5 1319 26.5C1317.62 26.5 1316.5 27.6193 1316.5 29H1321.5ZM1321.5 287V29H1316.5V287H1321.5Z" fill="#4361EE"/>
<path d="M1221.5 71C1221.5 69.6193 1220.38 68.5 1219 68.5C1217.62 68.5 1216.5 69.6193 1216.5 71H1221.5ZM1221.5 287V71H1216.5V287H1221.5Z" fill="#3A0CA3"/>
<path d="M1365 282.005V284.505H1370V282.005H1365ZM1370 75.9952C1370 74.6145 1368.88 73.4952 1367.5 73.4952C1366.12 73.4952 1365 74.6145 1365 75.9952H1370ZM1370 282.005V75.9952H1365V282.005H1370Z" fill="#4895EF"/>
<path d="M1271.5 24C1271.5 22.6193 1270.38 21.5 1269 21.5C1267.62 21.5 1266.5 22.6193 1266.5 24H1271.5ZM1271.5 282V24H1266.5V282H1271.5Z" fill="#3F37C9"/>
<path d="M1171 136.998C1171 135.618 1169.88 134.498 1168.5 134.498C1167.12 134.498 1166 135.618 1166 136.998H1171ZM1171 281.002V136.998H1166V281.002H1171Z" fill="#480CA8"/>
<path d="M1120.01 65.9987C1120.01 64.618 1118.89 63.4987 1117.51 63.4987C1116.13 63.4987 1115.01 64.618 1115.01 65.9987H1120.01ZM1120.01 282.001V65.9987H1115.01V282.001H1120.01Z" fill="#560BAD"/>
<path d="M1069.5 23C1069.5 21.6193 1068.38 20.5 1067 20.5C1065.62 20.5 1064.5 21.6193 1064.5 23H1069.5ZM1069.5 281V23H1064.5V281H1069.5Z" fill="#7209B7"/>
<path d="M1018.5 94.9947C1018.5 93.614 1017.38 92.4947 1016 92.4947C1014.62 92.4947 1013.5 93.614 1013.5 94.9947H1018.5ZM1018.5 282.005V94.9947H1013.5V282.005H1018.5Z" fill="#B5179E"/>
<path d="M967 122.998C967 121.618 965.881 120.498 964.5 120.498C963.119 120.498 962 121.618 962 122.998H967ZM967 282.001V122.998H962V282.001H967Z" fill="#F72585"/>
<path d="M916.5 24C916.5 22.6193 915.381 21.5 914 21.5C912.619 21.5 911.5 22.6193 911.5 24H916.5ZM916.5 282V24H911.5V282H916.5Z" fill="#4CC9F0"/>
<path d="M866.5 36.9959C866.5 35.6152 865.381 34.4959 864 34.4959C862.619 34.4959 861.5 35.6152 861.5 36.9959H866.5ZM866.5 287.004L866.5 36.9959H861.5L861.5 287.004H866.5Z" fill="#4895EF"/>
<path d="M816 89.9985C816 88.6178 814.881 87.4985 813.5 87.4985C812.119 87.4985 811 88.6178 811 89.9985H816ZM816 295.001V89.9985H811V295.001H816Z" fill="#4361EE"/>
<path d="M714.5 15.9962C714.5 14.6155 713.381 13.4962 712 13.4962C710.619 13.4962 709.5 14.6155 709.5 15.9962H714.5ZM714.5 295.003V15.9962H709.5V295.003H714.5Z" fill="#480CA8"/>
<path d="M765.5 29C765.5 27.6193 764.381 26.5 763 26.5C761.619 26.5 760.5 27.6193 760.5 29H765.5ZM765.5 287V29H760.5V287H765.5Z" fill="#3A0CA3"/>
<path d="M663 168.998C663 167.617 661.881 166.498 660.5 166.498C659.119 166.498 658 167.617 658 168.998H663ZM663 295.002V168.998H658V295.002H663Z" fill="#560BAD"/>
<path d="M611.5 71.9954C611.5 70.6147 610.381 69.4954 609 69.4954C607.619 69.4954 606.5 70.6147 606.5 71.9954H611.5ZM611.5 295.004V71.9954H606.5V295.004H611.5Z" fill="#7209B7"/>
<path d="M559.976 2.99921C559.976 1.6185 558.857 0.499207 557.476 0.499207C556.095 0.499207 554.976 1.6185 554.976 2.99921H559.976ZM559.976 287.001L559.976 2.99921H554.976L554.976 287.001H559.976Z" fill="#B5179E"/>
<path d="M509.5 52C509.5 50.6193 508.381 49.5 507 49.5C505.619 49.5 504.5 50.6193 504.5 52H509.5ZM509.5 282V52H504.5V282H509.5Z" fill="#F72585"/>
<path d="M459.5 52C459.5 50.6193 458.381 49.5 457 49.5C455.619 49.5 454.5 50.6193 454.5 52H459.5ZM459.5 282V52H454.5V282H459.5Z" fill="#4CC9F0"/>
<path d="M408.994 112.999C408.994 111.618 407.875 110.499 406.494 110.499C405.114 110.499 403.994 111.618 403.994 112.999H408.994ZM408.994 287.001V112.999H403.994V287.001H408.994Z" fill="#4895EF"/>
<path d="M205.994 117.999C205.994 116.618 204.875 115.499 203.494 115.499C202.114 115.499 200.994 116.618 200.994 117.999H205.994ZM205.994 292.001V117.999H200.994V292.001H205.994Z" fill="#480CA8"/>
<path d="M306.994 112.999C306.994 111.618 305.875 110.499 304.494 110.499C303.114 110.499 301.994 111.618 301.994 112.999H306.994ZM306.994 287.001V112.999H301.994V287.001H306.994Z" fill="#3F37C9"/>
<path d="M357.247 148.996C357.247 147.615 356.128 146.496 354.747 146.496C353.366 146.496 352.247 147.615 352.247 148.996H357.247ZM357.247 287.005V148.996H352.247V287.005H357.247Z" fill="#4361EE"/>
<path d="M256.5 37C256.5 35.6193 255.381 34.5 254 34.5C252.619 34.5 251.5 35.6193 251.5 37H256.5ZM256.5 295V37H251.5L251.5 295H256.5Z" fill="#3A0CA3"/>
<path d="M154.5 154.993C154.5 153.612 153.381 152.493 152 152.493C150.619 152.493 149.5 153.612 149.5 154.993H154.5ZM154.5 298.007L154.5 154.993H149.5L149.5 298.007H154.5Z" fill="#560BAD"/>
<path d="M105.5 40C105.5 38.6193 104.381 37.5 103 37.5C101.619 37.5 100.5 38.6193 100.5 40H105.5ZM105.5 298L105.5 40H100.5L100.5 298H105.5Z" fill="#7209B7"/>
<path d="M55.5 97C55.5 95.6193 54.3807 94.5 53 94.5C51.6193 94.5 50.5 95.6193 50.5 97H55.5ZM55.5 298L55.5 97H50.5L50.5 298H55.5Z" fill="#B5179E"/>
<path d="M5.5 145C5.5 143.619 4.38071 142.5 3 142.5C1.61929 142.5 0.5 143.619 0.5 145H5.5ZM5.5 298.003L5.5 145H0.5L0.5 298.003H5.5Z" fill="#F72585"/>
<path d="M1575.5 40C1575.5 38.6193 1574.38 37.5 1573 37.5C1571.62 37.5 1570.5 38.6193 1570.5 40H1575.5ZM1575.5 298V40H1570.5V298H1575.5Z" fill="#7209B7"/>
</svg>
