<svg width="508" height="494" viewBox="0 0 508 494" fill="none" xmlns="http://www.w3.org/2000/svg">
<g filter="url(#filter0_d_45_389)">
<path d="M498 183.096C498 312.487 357.636 492 256.976 492C156.315 492 10 312.487 10 183.096C10 53.7039 156.315 18 256.976 18C357.636 18 498 53.7039 498 183.096Z" fill="black"/>
<path d="M497 183.096C497 247.484 462.047 324.497 414.447 385.454C390.659 415.918 363.748 442.325 336.534 461.106C309.306 479.898 281.858 491 256.976 491C232.091 491 204.269 479.896 176.48 461.101C148.706 442.317 121.051 415.908 96.5189 385.442C47.4297 324.48 11 247.471 11 183.096C11 118.876 47.2684 77.8965 96.1947 52.9165C145.165 27.9143 206.735 19 256.976 19C307.216 19 367.293 27.9143 414.77 52.9107C462.197 77.8808 497 118.855 497 183.096Z" stroke="url(#paint0_linear_45_389)" stroke-width="2"/>
</g>
<defs>
<filter id="filter0_d_45_389" x="0" y="0" width="508" height="494" filterUnits="userSpaceOnUse" color-interpolation-filters="sRGB">
<feFlood flood-opacity="0" result="BackgroundImageFix"/>
<feColorMatrix in="SourceAlpha" type="matrix" values="0 0 0 0 0 0 0 0 0 0 0 0 0 0 0 0 0 0 127 0" result="hardAlpha"/>
<feOffset dy="-8"/>
<feGaussianBlur stdDeviation="5"/>
<feComposite in2="hardAlpha" operator="out"/>
<feColorMatrix type="matrix" values="0 0 0 0 1 0 0 0 0 1 0 0 0 0 1 0 0 0 0.5 0"/>
<feBlend mode="normal" in2="BackgroundImageFix" result="effect1_dropShadow_45_389"/>
<feBlend mode="normal" in="SourceGraphic" in2="effect1_dropShadow_45_389" result="shape"/>
</filter>
<linearGradient id="paint0_linear_45_389" x1="263.793" y1="24.4199" x2="263.793" y2="492" gradientUnits="userSpaceOnUse">
<stop offset="0.441925" stop-color="white"/>
<stop offset="0.625" stop-color="#F5F5F5" stop-opacity="0.25"/>
<stop offset="0.755" stop-color="white" stop-opacity="0"/>
</linearGradient>
</defs>
</svg>
